<?xml version="1.0" encoding="UTF-8"?>
<svg version="1.1" xmlns="http://www.w3.org/2000/svg" width="512" height="512">
<path d="M0 0 C1.6875 1.75 1.6875 1.75 3 4 C2.6750293 8.15034009 -0.08790339 11.10547739 -2.5 14.3125 C-16.92835985 34.08249969 -28.07403901 56.26228885 -37 79 C-37.34595215 79.86012695 -37.6919043 80.72025391 -38.04833984 81.60644531 C-45.30208205 99.69361409 -50.80326677 118.24003364 -56 137 C-56.30035156 138.08249023 -56.60070312 139.16498047 -56.91015625 140.28027344 C-64.93247956 169.6663925 -69.72265978 199.87822454 -74 230 C-74.19303201 231.35060947 -74.3862309 232.70119511 -74.57958984 234.05175781 C-75.05406756 237.36769589 -75.52748842 240.68378129 -76 244 C-87.55023161 243.73568934 -96.53668898 239.04018231 -104.9296875 231.21875 C-107.13439186 228.8559725 -108.97656471 226.36323077 -110.875 223.75 C-114.51102455 218.99407989 -117.80564532 217.47392171 -123.453125 215.7734375 C-129.75589804 213.8594052 -132.78872143 210.34976095 -136.01953125 204.90234375 C-144.40944852 188.62389868 -134.00963823 159.14371986 -129 143 C-114.40893115 98.66161839 -87.48220939 59.6225217 -56.1875 25.421875 C-54.65840947 23.72895335 -53.1606095 22.00747745 -51.6875 20.265625 C-50.924375 19.37359375 -50.16125 18.4815625 -49.375 17.5625 C-48.70210938 16.75941406 -48.02921875 15.95632812 -47.3359375 15.12890625 C-42.46156968 10.68654761 -35.75154083 9.22178396 -29.51171875 7.51953125 C-28.72730911 7.30181564 -27.94289948 7.08410004 -27.13471985 6.85978699 C-25.49076727 6.40459641 -23.84615794 5.95177161 -22.20092773 5.5012207 C-19.67593728 4.80933162 -17.15329172 4.10935464 -14.63085938 3.40820312 C-13.02877657 2.96567225 -11.42656742 2.52359847 -9.82421875 2.08203125 C-8.6914576 1.76804131 -8.6914576 1.76804131 -7.53581238 1.44770813 C-2.2320131 0 -2.2320131 0 0 0 Z " fill="#E7D7C7" transform="translate(221,206)"/>
<path d="M0 0 C4.41844384 1.07457622 8.82704085 2.18389173 13.23339844 3.30664062 C15.21321818 3.80281853 17.19601874 4.28716201 19.18066406 4.76367188 C22.62615395 5.59154239 26.06291999 6.45044605 29.5 7.3125 C31.16361572 7.70127319 31.16361572 7.70127319 32.86083984 8.09790039 C40.20337823 9.97817132 44.81108317 12.4863049 50 18 C50.49419434 18.49862549 50.98838867 18.99725098 51.49755859 19.51098633 C58.09602287 26.28889693 64.09390598 33.62225549 70 41 C70.93404903 42.14261984 71.86899094 43.28451019 72.8046875 44.42578125 C104.33656429 83.06890424 129.73392659 128.11352584 137 178 C137.13148438 178.8559375 137.26296875 179.711875 137.3984375 180.59375 C137.68536467 182.73407156 137.87209081 184.84435387 138 187 C138.09667969 188.55654297 138.09667969 188.55654297 138.1953125 190.14453125 C138.49516803 198.8903176 137.30137192 204.0740442 131.6875 210.75 C127.43531525 214.30996863 123.59390769 216.60152308 118.25 217.9375 C113.14179433 219.69963296 110.3368074 224.02983508 107.07177734 228.08740234 C100.98886361 235.60928491 93.24205522 241.94752371 83.36083984 243.38354492 C82.04913818 243.49339722 82.04913818 243.49339722 80.7109375 243.60546875 C79.8245459 243.6830542 78.9381543 243.76063965 78.02490234 243.84057617 C77.35668457 243.89318604 76.6884668 243.9457959 76 244 C75.8548999 242.9162207 75.7097998 241.83244141 75.56030273 240.71582031 C65.04800395 162.68561055 49.94546362 71.75160494 -1.40625 9.0625 C-3 7 -3 7 -2.875 4.875 C-2 3 -2 3 0 0 Z " fill="#E7D7C7" transform="translate(291,206)"/>
<path d="M0 0 C0.66 0 1.32 0 2 0 C2.32871094 0.75023438 2.65742187 1.50046875 2.99609375 2.2734375 C10.35712221 18.11261527 23.44071854 29.82599382 39.81640625 35.98046875 C60.64613205 42.6510926 82.02984921 44.22577293 103.8125 44.25 C104.90025223 44.25200912 104.90025223 44.25200912 106.00997925 44.25405884 C130.83238431 44.24428478 155.40228672 41.09312562 180 38 C180 50.54 180 63.08 180 76 C146.86509768 87.29598943 112.49989699 95.11721202 77.96002197 100.68292236 C76.15637351 100.97470307 74.3542277 101.2757327 72.55224609 101.57763672 C58.84862033 103.81709823 45.23204407 104.29223095 31.375 104.375 C30.57102783 104.38312714 29.76705566 104.39125427 28.9387207 104.39962769 C14.54579557 104.50897232 -2.99269792 104.44537865 -14.12890625 94.00390625 C-19.99863797 87.54127234 -20.59585904 82.10408427 -20.41015625 73.4765625 C-19.91985225 65.39621206 -16.71088681 57.45084362 -12.52490234 50.578125 C-7.98538609 43.04498928 -6.73825733 36.31209479 -5.875 27.625 C-4.84985588 17.98255533 -3.18784291 9.1787559 0 0 Z " fill="#E7D7C7" transform="translate(38,118)"/>
<path d="M0 0 C0.66 0 1.32 0 2 0 C5.1728193 9.12042714 6.75399429 17.79670273 7.75 27.375 C9.16079159 39.18664338 11.76116031 47.00251508 18 57 C22.3330158 66.21969474 24.13035985 77.37356386 21.33984375 87.36328125 C17.55818529 94.7465192 10.72988294 98.48693585 3.234375 101.140625 C-7.41801196 103.97096936 -17.79200946 104.4031938 -28.75 104.375 C-29.584245 104.37412384 -30.41848999 104.37324768 -31.27801514 104.37234497 C-47.76496784 104.31570427 -63.73516539 102.80380295 -80 100 C-80.68370667 99.8835614 -81.36741333 99.7671228 -82.07183838 99.64715576 C-114.52644998 94.09294033 -146.79798226 86.55362365 -178 76 C-178 63.46 -178 50.92 -178 38 C-173.47925781 38.52400391 -173.47925781 38.52400391 -168.8671875 39.05859375 C-165.90161243 39.40021809 -162.93592 39.7408059 -159.97021484 40.08129883 C-157.93167883 40.31589609 -155.89326369 40.55154649 -153.85498047 40.78833008 C-137.04775013 42.739685 -120.43215791 44.21321178 -103.5 44.1875 C-102.75876892 44.18689575 -102.01753784 44.1862915 -101.25384521 44.18566895 C-68.73728518 44.11409847 -35.30197687 41.74863494 -10.74609375 17.98828125 C-5.85164984 12.92872357 -2.22154512 6.66463535 0 0 Z " fill="#E7D7C7" transform="translate(472,118)"/>
<path d="M0 0 C2.53000377 2.2256127 4.99048159 4.50781043 7.4375 6.82421875 C8.31019531 7.63246094 9.18289062 8.44070312 10.08203125 9.2734375 C20.32490271 19.07670074 30.17399182 31.02248712 36.4375 43.82421875 C36.4375 44.48421875 36.4375 45.14421875 36.4375 45.82421875 C32.29379608 46.42767078 28.55691466 46.67999392 24.4375 45.82421875 C22.39692753 43.59191464 21.34694149 41.32938882 20.01953125 38.6171875 C14.26751625 28.46239558 1.68132391 23.38368384 -8.5625 18.82421875 C-9.62210938 18.35113281 -10.68171875 17.87804687 -11.7734375 17.390625 C-40.52067673 5.52961755 -73.26723431 3.49223529 -103.5625 9.82421875 C-104.23667969 9.9634375 -104.91085938 10.10265625 -105.60546875 10.24609375 C-123.10094473 14.0175736 -138.17067741 20.79803719 -149.5625 34.82421875 C-154.72231792 30.22221899 -157.16631374 26.40295615 -157.91796875 19.61328125 C-158.32974963 9.35214681 -155.84354081 2.73441145 -149.5625 -5.23828125 C-110.54776281 -47.03978538 -39.00404423 -33.11776317 0 0 Z " fill="#E7D7C7" transform="translate(208.5625,92.17578125)"/>
<path d="M0 0 C6.959196 5.94325498 13.40931993 13.51758446 14.49609375 22.88671875 C14.64799649 30.86608031 13.94372215 37.11774924 9.125 43.6875 C8.135 44.3475 7.145 45.0075 6.125 45.6875 C5.320625 44.635625 5.320625 44.635625 4.5 43.5625 C-10.23574709 25.72449037 -35.21144971 20.21201656 -57.34375 17.88378906 C-90.30790708 15.32754077 -129.26646534 20.27833418 -155.875 41.6875 C-156.52726562 42.16703125 -157.17953125 42.6465625 -157.8515625 43.140625 C-162.73637764 46.92375842 -165.12200274 51.18150548 -167.875 56.6875 C-171.835 56.6875 -175.795 56.6875 -179.875 56.6875 C-178.51803823 51.78612441 -176.30809477 48.04532826 -173.3125 44 C-172.86414795 43.38697021 -172.4157959 42.77394043 -171.95385742 42.14233398 C-170.60640027 40.31457624 -169.24429799 38.49893523 -167.875 36.6875 C-167.17117188 35.75421875 -166.46734375 34.8209375 -165.7421875 33.859375 C-144.01118683 6.26183042 -114.00783427 -14.10481479 -78.7109375 -18.84375 C-51.00143206 -21.89052611 -22.50238162 -17.38262994 0 0 Z " fill="#E7D7C7" transform="translate(446.875,81.3125)"/>
<path d="M0 0 C0.91434814 -0.00315216 1.82869629 -0.00630432 2.77075195 -0.009552 C3.76034912 -0.00752777 4.74994629 -0.00550354 5.76953125 -0.00341797 C7.28969849 -0.00485306 7.28969849 -0.00485306 8.84057617 -0.00631714 C10.98584047 -0.00699842 13.13110683 -0.00514772 15.27636719 -0.00097656 C18.56840628 0.00437239 21.86030893 -0.00092331 25.15234375 -0.00732422 C27.23307322 -0.00666343 29.3138026 -0.00538225 31.39453125 -0.00341797 C32.38412842 -0.0054422 33.37372559 -0.00746643 34.39331055 -0.009552 C35.30765869 -0.00639984 36.22200684 -0.00324768 37.1640625 0 C37.97077393 0.00079559 38.77748535 0.00159119 39.60864258 0.00241089 C41.58203125 0.12939453 41.58203125 0.12939453 43.58203125 1.12939453 C43.60729912 8.23184452 43.62486326 15.33428301 43.63696289 22.43676758 C43.64200474 24.85506625 43.64883803 27.27336187 43.6574707 29.69165039 C43.66954282 33.15918737 43.67526088 36.62668419 43.6796875 40.09423828 C43.68484879 41.18276596 43.69001007 42.27129364 43.69532776 43.39280701 C43.69540329 44.39376907 43.69547882 45.39473114 43.69555664 46.42602539 C43.69777725 47.31204941 43.69999786 48.19807343 43.70228577 49.11094666 C43.58203125 51.12939453 43.58203125 51.12939453 42.58203125 52.12939453 C41.08333077 52.22770599 39.58004586 52.25737909 38.078125 52.25878906 C36.64158569 52.2635173 36.64158569 52.2635173 35.17602539 52.26834106 C34.13438232 52.26631683 33.09273926 52.2642926 32.01953125 52.26220703 C30.95790771 52.26316376 29.89628418 52.26412048 28.80249023 52.2651062 C26.55289653 52.26578817 24.30330088 52.26393272 22.05371094 52.25976562 C18.59696054 52.25441763 15.14034008 52.25971007 11.68359375 52.26611328 C9.50390596 52.2654525 7.32421825 52.26417135 5.14453125 52.26220703 C4.10288818 52.26423126 3.06124512 52.26625549 1.98803711 52.26834106 C1.03034424 52.2651889 0.07265137 52.26203674 -0.9140625 52.25878906 C-1.76154053 52.25799347 -2.60901855 52.25719788 -3.48217773 52.25637817 C-5.41796875 52.12939453 -5.41796875 52.12939453 -6.41796875 51.12939453 C-6.51123591 49.56392405 -6.53542457 47.99426681 -6.53149414 46.42602539 C-6.53141861 45.42506332 -6.53134308 44.42410126 -6.53126526 43.39280701 C-6.52610397 42.30427933 -6.52094269 41.21575165 -6.515625 40.09423828 C-6.51421005 38.98585098 -6.5127951 37.87746368 -6.51133728 36.73548889 C-6.50571908 33.17926384 -6.4931635 29.6231007 -6.48046875 26.06689453 C-6.47545609 23.66259856 -6.47089278 21.25830161 -6.46679688 18.85400391 C-6.45574374 12.94577949 -6.43898792 7.03759143 -6.41796875 1.12939453 C-4.05548907 -0.05184531 -2.63400725 0.00259771 0 0 Z " fill="#E7D6C6" transform="translate(237.41796875,149.87060546875)"/>
</svg>
