<svg width="225" height="225" viewBox="0 0 225 225" fill="none" xmlns="http://www.w3.org/2000/svg">
<g filter="url(#filter0_d_0_1)">
<rect x="16" y="8" width="193" height="193" rx="57" fill="#767D73"/>
</g>
<path d="M173 89H192.143C197.035 89 201 92.9655 201 97.8571V97.8571C201 110.086 191.086 120 178.857 120H173V89Z" fill="#FFF5F5"/>
<rect x="39" y="34" width="148" height="141" rx="50" fill="#FFF5F5"/>
<path d="M53 89H33.8571C28.9655 89 25 92.9655 25 97.8571V97.8571C25 110.086 34.9137 120 47.1429 120H53V89Z" fill="#FFF5F5"/>
<rect x="30" y="27" width="161" height="45" fill="#767D73"/>
<path d="M55.5718 59.5246C57.6523 55.9212 62.26 54.6865 65.8634 56.767L66.3344 57.0389C69.6777 58.9692 70.8232 63.2442 68.893 66.5875L53.5439 93.1727C49.957 99.3856 42.0127 101.514 35.7999 97.9273V97.9273C34.8058 97.3533 34.4652 96.0822 35.0392 95.0882L55.5718 59.5246Z" fill="#767D73"/>
<rect x="145" y="56" width="8" height="20" rx="4" fill="#FFF5F5"/>
<rect x="159" y="81" width="8" height="29" rx="4" transform="rotate(90 159 81)" fill="#5C6062"/>
<rect x="93" y="81" width="8" height="29" rx="4" transform="rotate(90 93 81)" fill="#5C6062"/>
<path d="M158.651 132C165.471 132 171 137.529 171 144.349V144.349C171 152.44 164.44 159 156.349 159H151.5C144.044 159 138 152.956 138 145.5V145.5C138 138.044 144.044 132 151.5 132H158.651Z" fill="#F4C0C1"/>
<path d="M148.958 95.9859C152.046 95.4414 154.991 97.5033 155.535 100.591V100.591C156.896 108.311 151.742 115.673 144.022 117.035L139.532 117.826C133.412 118.905 127.576 114.819 126.497 108.699L125.863 105.103C125.386 102.401 127.19 99.8241 129.892 99.3477L148.958 95.9859Z" fill="#A2937B"/>
<path d="M75.6512 132C82.4712 132 88 137.529 88 144.349V144.349C88 152.44 81.4405 159 73.3488 159H68.5C61.0442 159 55 152.956 55 145.5V145.5C55 138.044 61.0442 132 68.5 132H75.6512Z" fill="#F4C0C1"/>
<path d="M77.0421 95.9859C73.954 95.4414 71.0093 97.5033 70.4648 100.591V100.591C69.1035 108.311 74.2584 115.673 81.9784 117.035L86.4683 117.826C92.5882 118.905 98.4241 114.819 99.5032 108.699L100.137 105.103C100.614 102.401 98.8096 99.8241 96.1075 99.3477L77.0421 95.9859Z" fill="#A2937B"/>
<path d="M117.426 147C119.952 147 122 149.048 122 151.574V151.574C122 154.571 119.571 157 116.574 157H109C106.239 157 104 154.761 104 152V152C104 149.239 106.239 147 109 147H117.426Z" fill="#F4C0C1"/>
<path d="M118.667 122C120.508 122 122 123.492 122 125.333V125.333C122 129.015 119.015 132 115.333 132H110.667C106.985 132 104 129.015 104 125.333V125.333C104 123.492 105.492 122 107.333 122H118.667Z" fill="url(#paint0_linear_0_1)"/>
<path opacity="0.57" d="M114.085 164C114.59 164 115 164.41 115 164.915V164.915C115 165.514 114.514 166 113.915 166V166C113.41 166 113 165.59 113 165.085V165C113 164.448 113.448 164 114 164H114.085Z" fill="#CFB7A5"/>
<path opacity="0.42" d="M106.628 135C107.386 135 108 135.614 108 136.372V136.372C108 137.271 107.271 138 106.372 138V138C105.614 138 105 137.386 105 136.628V136.5C105 135.672 105.672 135 106.5 135H106.628Z" fill="#CFB7A5"/>
<path d="M51 81.5C51 85.6421 47.6421 89 43.5 89H39.3103C37.4821 89 36 87.5179 36 85.6897V77.931C36 70.7894 41.7894 65 48.931 65V65C50.0737 65 51 65.9263 51 67.069V81.5Z" fill="#767D73"/>
<path d="M93.8962 60.2077C95.8462 57.8839 99.3108 57.5808 101.635 59.5307V59.5307C103.959 61.4807 104.262 64.9453 102.312 67.2691L95.5578 75.3181C92.7178 78.7027 87.6717 79.1442 84.2871 76.3042L82 74.3851L93.8962 60.2077Z" fill="#FFF5F5"/>
<rect x="95.6143" y="60.4499" width="8" height="24" rx="4" transform="rotate(-2 95.6143 60.4499)" fill="#FFF5F5"/>
<path d="M176 81C176 85.4183 179.582 89 184 89H191V73.931C191 66.7894 185.211 61 178.069 61V61C176.926 61 176 61.9263 176 63.069V81Z" fill="#767D73"/>
<rect x="188.641" y="50" width="8" height="29" rx="4" transform="rotate(40 188.641 50)" fill="#B8DAE3"/>
<path d="M185.834 61.0982C188.798 59.3871 192.588 60.4026 194.299 63.3663L194.741 64.1322C196.208 66.6729 195.337 69.9217 192.797 71.3885V71.3885C190.256 72.8554 187.007 71.9849 185.54 69.4442L182 63.312L185.834 61.0982Z" fill="#E6BDBE"/>
<path d="M181.948 59.3633C181.65 55.9541 178.645 53.4322 175.236 53.7305L174.355 53.8076C171.432 54.0633 169.27 56.6398 169.526 59.5623V59.5623C169.781 62.4849 172.358 64.6468 175.28 64.3912L182.334 63.774L181.948 59.3633Z" fill="#E6BDBE"/>
<circle cx="183" cy="63" r="4" fill="white"/>
<defs>
<filter id="filter0_d_0_1" x="0" y="0" width="225" height="225" filterUnits="userSpaceOnUse" color-interpolation-filters="sRGB">
<feFlood flood-opacity="0" result="BackgroundImageFix"/>
<feColorMatrix in="SourceAlpha" type="matrix" values="0 0 0 0 0 0 0 0 0 0 0 0 0 0 0 0 0 0 127 0" result="hardAlpha"/>
<feOffset dy="8"/>
<feGaussianBlur stdDeviation="8"/>
<feComposite in2="hardAlpha" operator="out"/>
<feColorMatrix type="matrix" values="0 0 0 0 0 0 0 0 0 0 0 0 0 0 0 0 0 0 0.25 0"/>
<feBlend mode="normal" in2="BackgroundImageFix" result="effect1_dropShadow_0_1"/>
<feBlend mode="normal" in="SourceGraphic" in2="effect1_dropShadow_0_1" result="shape"/>
</filter>
<linearGradient id="paint0_linear_0_1" x1="113" y1="122" x2="113" y2="132" gradientUnits="userSpaceOnUse">
<stop stop-color="#FFF5F5"/>
<stop offset="1" stop-color="#F6DEDE"/>
</linearGradient>
</defs>
</svg>
